<!-- <svg xmlns="http://www.w3.org/2000/svg" width="20" height="20" style="color: white;" stroke-width="1.5"  viewBox="0 0 20 20" fill="none">
  <path d="M9.04955 17.1458L9.04846 17.1448C6.4585 14.841 4.36985 12.979 2.91993 11.239C1.47778 9.50823 0.75 7.99281 0.75 6.3951C0.75 3.79268 2.81963 1.75 5.5 1.75C7.01859 1.75 8.48456 2.44728 9.43556 3.53419L10 4.1793L10.5644 3.53419C11.5154 2.44728 12.9814 1.75 14.5 1.75C17.1804 1.75 19.25 3.79268 19.25 6.3951C19.25 7.99281 18.5222 9.50823 17.0801 11.239C15.6301 12.979 13.5415 14.841 10.9515 17.1448L10.9504 17.1458L10 17.9945L9.04955 17.1458Z" stroke="black" stroke-width="1.5"/>
</svg>
 -->

<svg xmlns="http://www.w3.org/2000/svg" width="20" height="20" viewBox="0 0 20 20" style="color: white;">
  <path d="M9.04955 17.1458L9.04846 17.1448C6.4585 14.841 4.36985 12.979 2.91993 11.239C1.47778 9.50823 0.75 7.99281 0.75 6.3951C0.75 3.79268 2.81963 1.75 5.5 1.75C7.01859 1.75 8.48456 2.44728 9.43556 3.53419L10 4.1793L10.5644 3.53419C11.5154 2.44728 12.9814 1.75 14.5 1.75C17.1804 1.75 19.25 3.79268 19.25 6.3951C19.25 7.99281 18.5222 9.50823 17.0801 11.239C15.6301 12.979 13.5415 14.841 10.9515 17.1448L10.9504 17.1458L10 17.9945L9.04955 17.1458Z" 
        stroke="currentColor" stroke-width="1.5" fill="currentColor"/>
</svg>
